<svg width="20" height="20" viewBox="0 0 20 20" fill="none" xmlns="http://www.w3.org/2000/svg">
<path d="M18.417 4.2708C17.5143 3.36814 16.6251 2.47895 15.7225 1.57629C15.3183 1.79859 14.9006 2.02762 14.483 2.25665C14.0384 2.49916 13.6005 2.7484 13.1627 2.99091C12.9943 3.08521 12.8259 3.01785 12.7652 2.83597C12.4958 1.93331 12.2196 1.03065 11.9502 0.134725C11.9367 0.0875716 11.9232 0.0404176 11.903 0C10.6231 0 9.35668 0 8.08353 0C7.88818 0.693836 7.69956 1.38767 7.51095 2.08151C7.44358 2.33075 7.37622 2.57999 7.30886 2.82924C7.25497 3.02459 7.08656 3.09869 6.91142 2.99764C6.09633 2.54631 5.28124 2.09498 4.47289 1.64365C4.39879 1.60323 4.3449 1.56955 4.25733 1.65039C3.38161 2.51263 2.49916 3.36814 1.61671 4.22364C1.60323 4.23712 1.5965 4.25059 1.57629 4.2708C1.85248 4.76928 2.1354 5.2745 2.41159 5.77972C2.60694 6.13675 2.80903 6.49377 3.00438 6.85079C3.09869 7.02593 3.0448 7.1674 2.85618 7.22129C1.94678 7.49747 1.04412 7.76692 0.134726 8.04311C0.0875721 8.05658 0.0404186 8.07006 0 8.09027C0 9.37016 0 10.6366 0 11.9097C0.606266 12.0781 1.21253 12.2465 1.81879 12.415C2.14887 12.5093 2.47895 12.5968 2.80903 12.6844C3.05153 12.7518 3.11216 12.8798 2.99091 13.1021C2.53958 13.9104 2.09498 14.7188 1.64365 15.5271C1.62344 15.5675 1.60323 15.6079 1.58976 15.6282C2.51937 16.5578 3.4355 17.4739 4.37184 18.4102C4.57393 18.2957 4.8097 18.1677 5.04547 18.0397C5.66521 17.6962 6.29168 17.3459 6.91142 17.0024C7.11351 16.8878 7.24823 16.9485 7.30886 17.1708C7.55136 18.0667 7.80061 18.9559 8.04985 19.8518C8.06332 19.899 8.07679 19.9461 8.097 20C9.37016 20 10.6366 20 11.9165 20C12.0512 19.5554 12.1859 19.1108 12.3206 18.6595C12.4756 18.1543 12.6238 17.649 12.772 17.1438C12.8326 16.9552 12.9673 16.8946 13.1425 16.9956C13.9576 17.447 14.7727 17.8983 15.581 18.3496C15.6282 18.3766 15.682 18.4035 15.6686 18.3563C16.1064 17.9522 16.551 17.5615 16.9754 17.1438C17.4335 16.6992 17.8646 16.2277 18.3227 15.7764C18.417 15.682 18.4035 15.6214 18.3496 15.5204C17.8983 14.712 17.447 13.9037 17.0024 13.0953C16.9013 12.9202 16.9754 12.7518 17.1708 12.6979C18.0667 12.4554 18.9559 12.2061 19.8518 11.9569C19.899 11.9434 19.9461 11.9299 20 11.9097C20 10.6366 20 9.37016 20 8.09027C19.5554 7.95554 19.1108 7.82082 18.6595 7.68609C18.1543 7.53116 17.649 7.38296 17.1438 7.23476C16.9821 7.18761 16.9081 7.01246 16.9956 6.86426C17.447 6.04917 17.8983 5.23409 18.3496 4.42573C18.3698 4.36511 18.3968 4.31122 18.417 4.2708ZM14.8265 9.95621C14.84 12.5968 12.7181 14.7255 10.0505 14.7524C7.36948 14.7727 5.25429 12.6709 5.24756 9.96969C5.24082 7.30886 7.37622 5.17346 10.0303 5.16672C12.6507 5.16672 14.8131 7.32233 14.8265 9.95621Z" fill="white"/>
</svg>
