<svg width="161" height="26" viewBox="0 0 161 26" fill="none" xmlns="http://www.w3.org/2000/svg">
<path fill-rule="evenodd" clip-rule="evenodd" d="M27.1443 22.0615L27.837 21.1671H32.9633L35.6353 24.5821L35.1603 25.7408H28.5496L28.7079 24.5821L27.1443 22.0615Z" fill="#169FCC"/>
<path fill-rule="evenodd" clip-rule="evenodd" d="M28.7114 10.4172L31.1866 6.1395H34.071L46.9997 21.1618L45.9973 25.7408H40.4535L40.8013 24.4555L28.7114 10.4172Z" fill="#14B59A"/>
<path fill-rule="evenodd" clip-rule="evenodd" d="M31.7165 5.32673L32.9017 3.1342L36.4574 0.259094L42.5498 5.03715L41.7596 5.84384L42.8201 7.31242V8.88442L39.7843 11.3665L34.6899 5.32673H31.7165Z" fill="#1BC263"/>
<path fill-rule="evenodd" clip-rule="evenodd" d="M22.3011 14.8803H23.9115L28.1107 11.3665L33.6757 17.835L32.1061 20.1908H26.9692L23.4223 24.7027L22.6069 25.7409H18V20.2107L22.3011 14.8803Z" fill="#16BDCC"/>
<path fill-rule="evenodd" clip-rule="evenodd" d="M84.8398 5.83386C86.3836 5.83386 87.0993 6.04033 87.6573 6.53163C88.552 7.28763 89.2011 8.59845 89.2011 13C89.2011 17.3814 88.552 18.6912 87.6573 19.4694C87.0993 19.9607 86.3836 20.1661 84.8398 20.1661H79.9872C78.4445 20.1661 77.7298 19.9607 77.1707 19.4694C76.276 18.6912 75.628 17.3814 75.628 13C75.628 8.59845 76.276 7.28763 77.1707 6.53163C77.7298 6.04033 78.4445 5.83386 79.9872 5.83386H84.8398ZM79.8538 17.32C80.0105 17.4428 80.2117 17.5042 80.9274 17.5042H83.9006C84.6164 17.5243 84.8176 17.4428 84.9743 17.32C85.1754 17.1357 85.4666 16.6243 85.4666 13C85.4666 9.35657 85.1754 8.8441 84.9743 8.67998C84.8176 8.53704 84.6164 8.47457 83.9006 8.47457H80.9274C80.2117 8.47457 80.0105 8.53704 79.8538 8.67998C79.6526 8.8441 79.3625 9.35657 79.3625 13C79.3625 16.6434 79.6526 17.1357 79.8538 17.32Z" fill="white"/>
<path d="M70.3459 5.83429L65.6055 11.5466H64.6441V5.83429H60.9996V20.1655H64.6441V14.0846H65.65L70.3459 20.1655H74.6394L68.5787 12.5695L74.3927 5.83429H70.3459Z" fill="white"/>
<path d="M102.287 14.8628V12.1871L105.775 18.2298V20.1654H102.823C101.996 20.1654 101.616 19.961 101.213 19.3067L95.8246 10.4612H95.6011V20.1654H92.1134V5.83418H95.5344C96.3836 5.83418 96.7415 6.01842 97.1438 6.695L102.063 14.8628H102.287Z" fill="white"/>
<path d="M105.425 13.8126V11.137H105.648L110.568 19.3047C110.97 19.9813 111.328 20.1656 112.177 20.1656H115.598V5.83439H112.11V15.5385H111.887L106.498 6.6931C106.095 6.03874 105.715 5.83439 104.888 5.83439H101.936V7.76992L105.425 13.8126Z" fill="white"/>
<path d="M118.693 20.1656H130.432V17.5249H122.338V14.0646H128.644V11.5467H122.338V8.4751H130.432V5.83439H118.693V20.1656Z" fill="white"/>
<path d="M144.525 19.4697C143.966 19.961 143.272 20.1654 141.707 20.1654H136.922C135.379 20.1654 134.664 19.961 134.105 19.4697C133.21 18.6915 132.562 17.3807 132.562 13.0003C132.562 8.59771 133.21 7.28794 134.105 6.53089C134.664 6.03959 135.379 5.83418 136.922 5.83418H141.707C143.272 5.83418 143.966 6.03959 144.525 6.53089C145.352 7.24771 145.733 8.33194 145.777 11.015H142.29C142.222 9.233 142.021 8.84442 141.842 8.6803C141.685 8.53736 141.484 8.47489 140.768 8.47489H137.862C137.146 8.47489 136.945 8.53736 136.788 8.6803C136.587 8.84442 136.297 9.35583 136.297 13.0003C136.297 16.6437 136.587 17.1361 136.788 17.3203C136.945 17.4431 137.146 17.5045 137.862 17.5045H140.768C141.484 17.5247 141.685 17.4431 141.842 17.3203C142.021 17.1551 142.222 16.8078 142.29 14.8215H145.8C145.71 17.7089 145.352 18.7529 144.525 19.4697Z" fill="white"/>
<path d="M155.642 20.1661V8.4968H160.45V5.83386H147.235V8.4968H151.998V20.1661H155.642Z" fill="white"/>
</svg>
