<svg width="143" height="26" fill="none" xmlns="http://www.w3.org/2000/svg"><path fill-rule="evenodd" clip-rule="evenodd" d="m9.144 22.061.693-.894h5.126l2.672 3.415-.475 1.159h-6.61l.158-1.159-1.564-2.52Z" fill="#169FCC"/><path fill-rule="evenodd" clip-rule="evenodd" d="m10.711 10.417 2.476-4.277h2.884L29 21.162l-1.003 4.579h-5.544l.348-1.285-12.09-14.039Z" fill="#14B59A"/><path fill-rule="evenodd" clip-rule="evenodd" d="m13.716 5.327 1.186-2.193L18.457.26l6.093 4.778-.79.807 1.06 1.468v1.572l-3.036 2.482-5.094-6.04h-2.974Z" fill="#1BC263"/><path fill-rule="evenodd" clip-rule="evenodd" d="M4.301 14.88h1.61l4.2-3.514 5.565 6.469-1.57 2.356H8.97l-3.547 4.512-.815 1.038H0v-5.53l4.301-5.33Z" fill="#16BDCC"/><path fill-rule="evenodd" clip-rule="evenodd" d="M66.84 5.834c1.544 0 2.26.206 2.817.698.895.756 1.544 2.066 1.544 6.468 0 4.381-.649 5.691-1.544 6.47-.558.49-1.273.696-2.817.696h-4.853c-1.543 0-2.257-.205-2.816-.697-.895-.778-1.543-2.088-1.543-6.469 0-4.402.648-5.712 1.543-6.468.559-.492 1.273-.698 2.816-.698h4.853ZM61.854 17.32c.157.123.358.184 1.073.184h2.974c.715.02.917-.061 1.073-.184.201-.184.493-.696.493-4.32 0-3.643-.292-4.156-.493-4.32-.156-.143-.358-.205-1.073-.205h-2.974c-.715 0-.916.062-1.073.205-.201.164-.492.677-.492 4.32 0 3.643.29 4.136.492 4.32Z" fill="#fff"/><path d="m52.346 5.834-4.74 5.713h-.962V5.834H43v14.332h3.644v-6.081h1.006l4.696 6.08h4.293l-6.06-7.595 5.814-6.736h-4.047ZM84.287 14.863v-2.676l3.488 6.043v1.935h-2.952c-.827 0-1.207-.204-1.61-.858l-5.388-8.846H77.6v9.704h-3.488V5.835h3.421c.85 0 1.207.183 1.61.86l4.92 8.168h.223ZM87.425 13.813v-2.676h.223l4.92 8.168c.402.676.76.86 1.609.86h3.421V5.836H94.11v9.704h-.223l-5.389-8.846c-.403-.654-.783-.859-1.61-.859h-2.952V7.77l3.489 6.043ZM100.693 20.166h11.739v-2.641h-8.094v-3.46h6.306v-2.518h-6.306V8.475h8.094v-2.64h-11.739v14.33ZM126.525 19.47c-.559.491-1.253.695-2.818.695h-4.785c-1.543 0-2.258-.204-2.817-.695-.895-.778-1.543-2.09-1.543-6.47 0-4.402.648-5.712 1.543-6.47.559-.49 1.274-.696 2.817-.696h4.785c1.565 0 2.259.206 2.818.697.827.717 1.208 1.8 1.252 4.484h-3.487c-.068-1.782-.269-2.17-.448-2.335-.157-.143-.358-.205-1.074-.205h-2.906c-.716 0-.917.062-1.074.205-.201.164-.491.676-.491 4.32s.29 4.136.491 4.32c.157.123.358.184 1.074.184h2.906c.716.02.917-.06 1.074-.184.179-.165.38-.512.448-2.498h3.51c-.09 2.887-.448 3.93-1.275 4.648ZM137.642 20.166V8.496h4.808V5.835h-13.215v2.663h4.763v11.67h3.644Z" fill="#fff"/></svg>